<svg id="BoardMaster_Icon" xmlns="http://www.w3.org/2000/svg" viewBox="0 0 107.91 116.39"><defs><style>.cls-1{fill:#010101;}</style></defs><path class="cls-1" d="M106.44,34.7c-1.75-4.37-5.76-3-16.23,5.58A181.28,181.28,0,0,1,68.4,55.64C44.84,69.42,37.16,83.21,38,110.78c.53,16.23.53,16.41,4.89,16.41s4.36-.18,5.23-18.33C49.38,81.64,53.74,75.71,85,57.73c10.13-5.76,22.87-19.37,21.47-23ZM119,55.64c-8.37-5.06-12.91-5.59-14.48-1.4-.7,1.92.17,3.84,2.79,5.59,10.82,7.67,16.06,13.43,21.29,23.73,3.32,6.11,5.24,11.69,4.54,12.39-.52.7-5.24-1.57-10.3-4.89-20.76-13.78-28.09-15.18-36.47-6.8-8,8.2-7.15,15.7,3.49,26.87a164.88,164.88,0,0,1,14.83,19c6.46,10.12,10.65,12.57,12.74,7.16,1.75-4.37-7.85-20.77-17.62-30.37-7-7-8.2-9.25-7.33-12.91,1.57-5.93,7-5.76,16.75,1,14,9.25,20.94,12.39,26,11.16,5.94-1.57,10.65-5.75,10.65-9.94,0-8.73-17.45-35.08-26.88-40.66ZM78.69,137c-26.52-2.27-33-1.75-33.68,2.62a4.33,4.33,0,0,0,2.45,4.88c4.53,1.75,47.29,5.06,50.25,4,3.32-1.4,3.67-8,.53-9.08-1-.52-9.95-1.57-19.55-2.44Z" transform="translate(-37.97 -32.29)"/></svg>