<svg id="Chess_King_Icon" xmlns="http://www.w3.org/2000/svg" viewBox="0 0 110.92 120.86">
  <defs>
    <style>
      .cls-1{fill:#010101;}
    </style>
  </defs>
  <path class="cls-1" d="M89.26,40.28c-1.1,2-3.67,3.67-5.51,3.67-4.77,0-4.77,4,0,8.26s4.59,5.7-.92,12.31c-2.57,2.93-4.59,7.53-4.59,9.91,0,4.41-.18,4.41-5.5,1.65-2.94-1.46-9.19-2.75-14-2.75-7.16,0-9.37.92-14.69,6.24-9,9-8.81,18.18,1.1,33.24,5.69,8.81,7.9,14.51,9.73,25l2.21,13.59,9.18,3.31c12.3,4.22,48.29,3.48,57.29-1.11,6.06-3.12,6.24-3.67,8.63-22.21.55-4,3.85-11.57,7.53-16.9,11.38-16.34,11.57-27.36.73-36.36-6.61-5.69-18.73-6.42-27.36-2-5.32,2.76-5.51,2.76-5.51-1.65,0-2.38-2-7-4.59-9.91-5.51-6.61-5.69-8.82-.92-11.39,4.6-2.38,5-9.18.37-9.18-1.65,0-4.22-1.65-5.51-3.67s-2.93-3.67-4-3.67c-.91,0-2.57,1.65-3.67,3.67ZM71.63,83.06C80.08,87.84,86,96.65,87.42,107.12c1.47,11.75,10.84,11.2,11-.55,0-7.9,8.45-19.65,17.08-23.87,9.91-4.78,14.14-4.78,20.38,0,6.61,5.32,6.43,14.69-.55,25.89-2.94,4.77-7,9.36-8.81,10.28-1.84,1.1-16.9,1.84-33.61,1.84s-31.76-.74-33.6-1.84c-1.84-.92-5.88-5.51-8.81-10.28C43.54,97.39,43.36,88,50,82.7c6.24-5,12.67-4.78,21.66.36Zm46.64,56.37c1.66.92,2.76,1.84,2.21,2s-12.67.56-27.18.74c-30.48.37-35.81-1.47-15.06-5.33C85.4,135.58,115,137.41,118.27,139.43Zm-.91-53.25c-8.08,3.49-15.25,15.06-15.25,24.43,0,9.91,18.18,9,27.36-1.47,9.74-11,10.1-20.39.92-24.06C125.62,83.06,123.78,83.25,117.36,86.18Zm-65.19.19c-6.06,3.49-3.49,15.61,5,24,9,9,26.62,9.37,26.62.37,0-17.08-18.91-31.77-31.58-24.42Z" transform="translate(-37.54 -36.61)"/>
<defs>

<script>
  let icon = document.querySelector("#Chess_King_Icon");

  function logMyId()
  {
  console.log(this.id);
  }

  icon.addEventListener("click", () => { console.log(this); });
</script>

</defs>

</svg>
