<svg id="Chess_Pawn_Icon" xmlns="http://www.w3.org/2000/svg" viewBox="0 0 95.59 127.89"><defs><style>.cls-1{fill:#010101;}</style></defs><path class="cls-1" d="M86.83,42.77C79,46.05,74.38,55,76.56,62.86c1.75,5.9,1.09,7.65-5,13.76-8.74,8.74-9.39,17-2.19,27.52l5,7.43-8.52,6.11c-10.26,7.43-15.94,19.66-18.13,38L46.2,169.44H93.38c38.44,0,47.17-.65,48.05-3.05.65-1.75.43-9.18-.66-16.6-2.18-15.29-9.39-28.18-19.44-34.07L115,112l4.59-6.33a25.54,25.54,0,0,0,4.8-15.29c0-7.2-1.31-9.83-7.21-15.07-5.89-5.46-6.55-7-4.8-11.79,2.18-6.12.22-14-4.81-18.13-4.58-3.71-15.06-5-20.74-2.62Z" transform="translate(-46.2 -41.56)"/>

<defs>

<script>
  let icon = document.querySelector("#Chess_Pawn_Icon");

  function logMyId()
  {
  console.log(this.id);
  }

  icon.addEventListener("click", () => { console.log(this); });
</script>

</defs>
</svg>
