<svg id="Jjangi_King_Icon" data-name="Layer 1" xmlns="http://www.w3.org/2000/svg" viewBox="0 0 174.88 151.89"><defs><style>.cls-1{fill:#fff;stroke:#231f20;stroke-miterlimit:10;}.cls-2{fill:#a01e22;}</style></defs><polygon id="BG" class="cls-1" points="52.59 151.39 125.36 151.39 174.38 102.37 174.38 47.99 121.53 0.5 52.59 0.5 0.51 47.22 3.57 116.93 52.59 151.39"/><path id="Character_Bottom" class="cls-2" d="M81,104.91s-1.91,19.14-3.57,21.19,1.79,12.76,1.79,12.76,5,1.92,3.32,6.64,15.7-1.28,21.19-10.47c0,0-24-1-21.45-9h28.09s4.52-8.1-16.7-6.83c0,0-10.11-9.36,9.8-6h8.43v-6l-21.45-.51S86.1,90,82.27,90.35s1.46-8.55,12.16-4.85l43.25-.9s3.82-8.3,9.7,0c0,0,17.49,3.71,0,16l-24.51,1.66-.51,5,20.93.51,2,7.92-21.7,1s-5.1,8.55,13.28,3.83c0,0,28-7.15,29.62.51,0,0,3.7,5,3.06,8.68l-29.11-1.53s15.83,11.86,13.28,19-7.28,7.41-14.3-1.39A47.12,47.12,0,0,0,123.32,133l-7.6,1A38.45,38.45,0,0,1,91,152.45s-24,9.26-25.27-4.4l-1.54-13.27s-17.87-8.06,3.32-5.11c0,0,8-18.51,10.47-23.49S81,104.91,81,104.91ZM100.5,97.5h12.14a1.63,1.63,0,0,0,1.59-2l-.54-2.29A1.61,1.61,0,0,0,112,92l-11.61.61a1.63,1.63,0,0,0-1.54,1.63v1.67A1.63,1.63,0,0,0,100.5,97.5Zm27.13-2.14,9-.52a1.62,1.62,0,0,0,1.32-2.43l-.2-.35a1.87,1.87,0,0,0-1.62-.94h-8.54a1.63,1.63,0,0,0-1.63,1.63v1A1.63,1.63,0,0,0,127.63,95.36Z" transform="translate(-22.91 -26.28)"/><path id="Character_Top" class="cls-2" d="M67,106.53c-.59-2.52-3-4.71-9.86-4.31-15.21.9,0-11.1,0-11.1s17.38-15.19,3-23.75c-12.42-7.36-1.32-8.1,2-8.16a2.27,2.27,0,0,1,1.5.52c1.84,1.51,7,5.6,6.46,3.81s4.67-5.24,7.14-6.85a2.3,2.3,0,0,1,2.48,0c3.1,1.93,11.34,6.25,14.12-.54C96.28,50,104.67,50.37,109,51a2.29,2.29,0,0,1,1.89,2.82c-.67,2.85-.79,7.18,5.34,5.86,5.25-1.12,4.77-2.6,3.48-3.63a2.28,2.28,0,0,1-.13-3.43,15.48,15.48,0,0,1,14-4.27,2.31,2.31,0,0,1,1.78,2.71c-.86,4.26-2.53,1.5,6.14,1.73a13.28,13.28,0,0,1,11.14,6.57,2.32,2.32,0,0,1-1.86,3.55l-12.26.56a2.32,2.32,0,0,0-1.62,3.86A10.73,10.73,0,0,1,139.47,73,2.32,2.32,0,0,1,137,75.63c-15.49-.91-25.84,1.73-26.64,1.94l-.11,0c-14,3-19.38.27-21.41-2.09A2.31,2.31,0,0,1,89.47,72l.15-.09a2.32,2.32,0,0,0-1.23-4.28H80.66a2.31,2.31,0,0,0-2,3.42,46.92,46.92,0,0,1,2.31,5.06,2.32,2.32,0,0,1-1.81,3.13c-5.49.91-9.83,5.35-10.73,6.33a2.3,2.3,0,0,1-.41.35c-10.92,7.32-1.14,9.08,1.27,9.39a2.16,2.16,0,0,1,1,.36c4.93,3.38,3.45,8,.92,11.68A2.32,2.32,0,0,1,67,106.53ZM128.6,62.45l4.52-1.34A1.17,1.17,0,0,0,134,60v-1.5a1.18,1.18,0,0,0-1.18-1.19h-4.52a1.19,1.19,0,0,0-1.19,1.19v2.84A1.18,1.18,0,0,0,128.6,62.45ZM69.12,75.2v2.72a1.33,1.33,0,0,0,1.33,1.33h3.22A1.33,1.33,0,0,0,75,77.92V75.76a1.32,1.32,0,0,0-1.09-1.3l-3.23-.56A1.32,1.32,0,0,0,69.12,75.2Z" transform="translate(-22.91 -26.28)"/>

<defs>

<script>
  let icon = document.querySelector("#Jjangi_King_Icon");

  function logMyId()
  {
  console.log(this.id);
  }

  icon.addEventListener("click", () => { console.log(this); });
</script>

</defs>
</svg>
