<svg id="Jjangi_Pawn_Icon" xmlns="http://www.w3.org/2000/svg" viewBox="0 0 94.71 91.64"><defs><style>.cls-1{fill:#fff;stroke:#231f20;stroke-miterlimit:10;}.cls-2{fill:#741313;}</style></defs><polygon id="BG" class="cls-1" points="29.35 0.5 71.22 0.5 93.18 26.8 94.2 67.14 69.95 91.14 29.35 91.14 0.5 65.1 0.5 31.14 29.35 0.5"/><path class="cls-2" d="M86.89,116.26s-20.3.64-17.87-7.4H85.87l1-13s-8-9.32,2.55-9.19S105,68.77,105,68.77l9.19,6.13s-14.68,12.79-18.13,12,12.25,3.83,30.89,1c0,0,7.41,11-4.85,9.45s-6.89,6.77-6.89,6.77-8.81,8.8,20.68,5c0,0,12.59,15.2-5,8.17,0,0-15.68-1.66-15.94-1s18.9,8.68,7.41,16.09c0,0-2.81,3.32-19.15-16.6,0,0-5.87-1.27-3.45,8.43,0,0-14.81,9.83-22.85,4.85,0,0,8.3-4.85,10.21-7.41S86.89,116.26,86.89,116.26Zm10.67-6.89H100a2.73,2.73,0,0,0,2.74-2.42,20.2,20.2,0,0,1,1.59-5.83,2.76,2.76,0,0,0-2.88-3.83l-4.25.54a2.76,2.76,0,0,0-2.41,2.74v6A2.77,2.77,0,0,0,97.56,109.37Z" transform="translate(-52.43 -58.32)"/>
<defs>

<script>
  let icon = document.querySelector("#Jjangi_Pawn_Icon");

  function logMyId()
  {
  console.log(this.id);
  }

  icon.addEventListener("click", () => { console.log(this); });
</script>

</defs>
</svg>
