<svg id="Mahjong_Icon" xmlns="http://www.w3.org/2000/svg" viewBox="0 0 123 126.6"><defs><style>.cls-1{fill:none;stroke:#231f20;stroke-miterlimit:10;}.cls-2{fill:#161240;}.cls-3{fill:#fef163;}</style></defs><rect class="cls-1" x="78.9" y="0.5" width="43.6" height="57.13" rx="3.03"/><path class="cls-2" d="M139.67,38.26V61.64l6.08-5.56v-23l9.48,1.24a8.43,8.43,0,0,0-4.64,6.59,96.86,96.86,0,0,0-.61,10.3s5-2.63,7-3.86.62,3.55.62,3.55-7.52.1-7.73,2.06-.1,17.51-.1,17.51,7.78-3.09,10.2-2.88c0,0,.82,5.25,0,5.35s-9.84-.51-13.7,3.92L146.16,58l-6.49,5.77v8.85s-2.45,4-4.39.72c0,0,1.67-7-3-.3s-4.64,4.42-4.64,4.42l-4.32-7.72s.87-3.3,5.35,1.24l6.63-4.52v-14s-4.41-.83-6.42-7.42c0,0,6.4,3.3,6.42,4.43V37Z" transform="translate(-41.12 -27.86)"/><rect class="cls-1" x="0.5" y="68.97" width="43.6" height="57.13" rx="3.03"/><path class="cls-2" d="M61.28,108.15v23.38L67.36,126V103l9.47,1.24a8.43,8.43,0,0,0-4.63,6.59,95.31,95.31,0,0,0-.62,10.3s5-2.63,7-3.86.62,3.55.62,3.55-7.52.1-7.72,2.06-.11,17.51-.11,17.51,7.78-3.09,10.2-2.88c0,0,.82,5.25,0,5.35s-9.84-.51-13.7,3.92l-.1-18.85-6.49,5.77v8.85s-2.46,4-4.4.73c0,0,1.67-7.06-3-.31s-4.63,4.43-4.63,4.43l-4.33-7.73s.88-3.3,5.36,1.24l6.62-4.52v-14s-4.41-.83-6.42-7.42c0,0,6.4,3.3,6.42,4.43V106.92Z" transform="translate(-41.12 -27.86)"/><path class="cls-3" d="M61.42,48.92h43.19a2,2,0,0,1,2,2h0a2,2,0,0,1-2,2H63.43a2,2,0,0,0-2,2V75.48a2,2,0,0,1-2,2h0a2,2,0,0,1-2-2V50.93a2,2,0,0,1,2-2Z" transform="translate(-41.12 -27.86)"/>
<defs>

<script>
  let icon = document.querySelector("#Mahjong_Icon");

  function logMyId()
  {
  console.log(this.id);
  }

  icon.addEventListener("click", () => { console.log(this); });
</script>

</defs>
</svg>
