<svg id="Mahjong_Icon_2" xmlns="http://www.w3.org/2000/svg" viewBox="0 0 123 126.6"><defs><style>.cls-1{fill:none;stroke:#231f20;stroke-miterlimit:10;}.cls-2{fill:#116d38;}.cls-3{fill:#fef163;}</style></defs><rect class="cls-1" x="78.9" y="0.5" width="43.6" height="57.13" rx="3.03"/><path class="cls-2" d="M141.37,89.78,141,76.42c-2.05-1.13-5.14-2-6-4.6s6.17-4.34,6.17-4.34V54.63c-5.65-1.85-6.17-5.34-6.17-5.34,10.48-8.22,22.61,0,22.61,0-1,4.62-6.37,4.52-6.37,4.52V67.48c5.34,1.12,6.37,4.83,6.37,4.83-1.54,2.67-7,4.31-7,4.31L151,90c5.76.52,6.58,3.91,6.58,3.91-12.64,9.25-22.61,0-22.61,0C136.13,89.68,141.37,89.78,141.37,89.78Zm-.15,3s6,5.55,9.15,0a4,4,0,0,0-2.68-.72l-.1-13h-3L144.82,92S141.94,91.68,141.22,92.81Zm-1.13-21s6.11,5.11,12.43,0c0,0-.87-2.18-6.21-2.23S140.09,71.82,140.09,71.82Zm4.52-19.5-.21,12.44H148l.1-13.26c1.75-.31,2.27-2.36,2.27-2.36a12.51,12.51,0,0,0-8.64,0C139,49.8,144.61,52.32,144.61,52.32Z" transform="translate(-45.57 -42.75)"/><rect class="cls-1" x="0.5" y="68.97" width="43.6" height="57.13" rx="3.03"/><path class="cls-2" d="M63,158.25l-.41-13.36c-2.06-1.13-5.14-1.95-6-4.6S62.77,136,62.77,136V123.1c-5.65-1.85-6.16-5.34-6.16-5.34,10.48-8.22,22.6,0,22.6,0-1,4.62-6.37,4.52-6.37,4.52V136c5.35,1.13,6.37,4.83,6.37,4.83-1.54,2.67-7,4.32-7,4.32l.41,13.35c5.75.52,6.57,3.91,6.57,3.91-12.64,9.25-22.6,0-22.6,0C57.74,158.15,63,158.25,63,158.25Zm-.16,3s6,5.55,9.15,0a3.94,3.94,0,0,0-2.67-.72l-.11-13.05h-3l.21,13S63.54,160.15,62.82,161.28Zm-1.13-21s6.12,5.11,12.44,0c0,0-.88-2.18-6.22-2.23S61.69,140.29,61.69,140.29Zm4.52-19.5L66,133.23h3.6l.1-13.26c1.75-.31,2.26-2.36,2.26-2.36a12.48,12.48,0,0,0-8.63,0C60.58,118.27,66.21,120.79,66.21,120.79Z" transform="translate(-45.57 -42.75)"/><path class="cls-3" d="M147.29,146.56H104.1a2,2,0,0,1-2-2h0a2,2,0,0,1,2-2h41.18a2,2,0,0,0,2-2V120a2,2,0,0,1,2-2h0a2,2,0,0,1,2,2v24.55a2,2,0,0,1-2,2Z" transform="translate(-45.57 -42.75)"/>
<defs>

<script>
  let icon = document.querySelector("#Mahjong_Icon_2");

  function logMyId()
  {
  console.log(this.id);
  }

  icon.addEventListener("click", () => { console.log(this); });
</script>

</defs>
</svg>
