<svg id="Othello_Icon" xmlns="http://www.w3.org/2000/svg" viewBox="0 0 160.59 157.91"><defs><style>.cls-1{fill:#231f20;}.cls-2{fill:#fff;stroke:#231f20;stroke-miterlimit:10;}</style></defs><path id="Black_Othello" class="cls-1" d="M147.4,106.46c17,.24,26-9.71,30.68-19.17A37.86,37.86,0,0,0,178.25,54c-4.67-9.6-13.74-19.78-31.22-19.9-13.27-.09-21.77,5.76-27.2,12.81a38,38,0,0,0,.62,46.76C126,100.5,134.49,106.27,147.4,106.46ZM57.76,191c17,.25,26-9.71,30.69-19.17a37.84,37.84,0,0,0,.16-33.31c-4.67-9.6-13.74-19.78-31.22-19.9-13.27-.09-21.77,5.75-27.2,12.81a38,38,0,0,0,.63,46.76C36.36,185,44.85,190.79,57.76,191Z" transform="translate(-21.94 -33.57)"/><path id="White_Othello" class="cls-2" d="M57.76,106.46c17,.24,26-9.71,30.69-19.17A37.86,37.86,0,0,0,88.61,54c-4.67-9.6-13.74-19.78-31.22-19.9C44.12,34,35.62,39.83,30.19,46.88a38,38,0,0,0,.63,46.76C36.36,100.5,44.85,106.27,57.76,106.46ZM147.4,191c17,.25,26-9.71,30.68-19.17a37.84,37.84,0,0,0,.17-33.31c-4.67-9.6-13.74-19.78-31.22-19.9-13.27-.09-21.77,5.75-27.2,12.81a38,38,0,0,0,.62,46.76C126,185,134.49,190.79,147.4,191Z" transform="translate(-21.94 -33.57)"/>
<defs>

<script>
  let icon = document.querySelector("#Othello_Icon");

  function logMyId()
  {
  console.log(this.id);
  }

  icon.addEventListener("click", () => { console.log(this); });
</script>

</defs>
</svg>
