<svg id="shogi_Pawn_Icon" data-name="Layer 1" xmlns="http://www.w3.org/2000/svg" viewBox="0 0 80.55 86.4"><defs><style>.cls-1{fill:#c7bea6;}.cls-2{fill:#231f20;}</style></defs><polygon class="cls-1" points="0 86.4 10.1 12.76 41.21 0 69.65 11.43 80.55 86.4 0 86.4"/><path class="cls-2" d="M48,91.44c.45.06,14.43,2.55,33.07-14.17,0,0,.7-1.85-2-4.6s3.51-2.42,5.11,0,11.11,2.94,11.11,2.94-.07,4.78-6.13,3.7-7.53,1-7.53,1-12,13.28-21.71,15.45S48,91.44,48,91.44ZM62.17,76.37c4.72-8.42-1.79-4.72-1.79-4.72C58.47,77,50.3,78.16,50.3,78.16,49,80.78,57.45,84.8,62.17,76.37Zm-16-3.44s17-7.15,22.86-4.22V77s2.23,3.7,4.21,2.55V68s4.34-2.38,22,2.83c0,0,6.12-3.59,0-4.68,0,0-15.39-2.17-21.45-2,0,0-2-4.15,2.42-4.09S86,60,86,60s2.17-3.25-1.91-3.57a96.32,96.32,0,0,0-10.09,0s.07-6.32-2.42-6.26S67,53.14,68.3,56.59s.38,8.4.38,8.4l-6.51-.74L61.79,58s-2.87-5-5.49.77c0,0-1.28,1.91,2.68,2.55L57.7,65.65l-9.7.77S42.13,67.69,46.21,72.93Z" transform="translate(-28.44 -25.1)"/>
<defs>

<script>
  let icon = document.querySelector("#shogi_Pawn_Icon");

  function logMyId()
  {
  console.log(this.id);
  }

  icon.addEventListener("click", () => { console.log(this); });
</script>

</defs>
</svg>
