<svg id="Tic_Tac_Toe_Icon" xmlns="http://www.w3.org/2000/svg" viewBox="0 0 248.17 246.89"><defs><style>.cls-1{fill:#b5e0db;}.cls-2{fill:#18b899;stroke:#18b899;stroke-miterlimit:10;}.cls-3{fill:#2b3e50;}</style></defs><path id="Line" class="cls-1" d="M21.11,182.55l79.83-.17-.68-75.4-79.15-.17v-7h79.32l-.34-79.15h7.31l.09,79.15h75.57l-.34-79.15h7.83l.17,79h78.56v7h-78.9l.34,76.17h78.56v6.47H190.64v78.29h-7.49V189.28H107.91v78.29h-7.14V189.28H21.11Zm87-.51h75.32V107H108.13Z" transform="translate(-21.11 -20.68)"/><path id="X" class="cls-2" d="M128,120.57l17.18,16.34,17-15.76,6.71,7.4L152.07,145.4l16.86,16.28-7.41,6.64L144.8,152.43l-17,16.44-6.7-7.25L137.65,145l-17.27-17.3Zm77.29,6.49,17.26,17.3L206,161l6.7,7.26,17-16.45,16.72,15.89,7.41-6.63L237,144.81,253.84,128l-6.7-7.41-17,15.77L212.92,120ZM36.19,43.71,53.46,61,36.93,77.67l6.7,7.25,17-16.44L77.33,84.37l7.41-6.64L67.88,61.46,84.74,44.61,78,37.2,61,53,43.82,36.63Z" transform="translate(-21.11 -20.68)"/><path id="O" class="cls-3" d="M229.57,87.06c12.49.18,19.12-7.14,22.58-14.11a27.81,27.81,0,0,0,.12-24.51c-3.43-7.07-10.11-14.56-23-14.65-9.76-.07-16,4.23-20,9.42a27.93,27.93,0,0,0,.46,34.42A24.81,24.81,0,0,0,229.57,87.06Zm-15-17.44a19,19,0,0,1-.09-17.52c2.25-4.38,6.62-8.78,15.11-8.78,16.9,0,16.9,16.34,16.9,16.34S248,77.87,230.3,78.21C221.45,78.38,216.89,74,214.55,69.62ZM60.72,170.74c12.49.18,19.12-7.15,22.58-14.11a27.83,27.83,0,0,0,.12-24.52c-3.43-7.06-10.11-14.56-23-14.65-9.76-.06-16,4.24-20,9.43a27.93,27.93,0,0,0,.46,34.42A24.87,24.87,0,0,0,60.72,170.74Zm-15-17.44a19,19,0,0,1-.09-17.52c2.25-4.38,6.62-8.78,15.11-8.78,16.9,0,16.9,16.34,16.9,16.34s1.53,18.21-16.17,18.55C52.6,162.06,48,157.7,45.7,153.3ZM229.82,254.47c12.5.18,19.12-7.15,22.58-14.11a27.83,27.83,0,0,0,.12-24.52c-3.43-7.07-10.11-14.56-23-14.65-9.77-.07-16,4.24-20,9.43A27.92,27.92,0,0,0,210,245,24.85,24.85,0,0,0,229.82,254.47Zm-15-17.45a19,19,0,0,1-.1-17.52c2.25-4.38,6.62-8.78,15.11-8.78,16.9,0,16.9,16.34,16.9,16.34s1.53,18.21-16.17,18.55C221.7,245.78,217.15,241.43,214.81,237Z" transform="translate(-21.11 -20.68)"/>
<defs>

<script>
  let icon = document.querySelector("#Tic_Tac_Toe_Icon");

  function logMyId()
  {
  console.log(this.id);
  }

  icon.addEventListener("click", () => { console.log(this); });
</script>

</defs>
</svg>
